<svg xmlns="http://www.w3.org/2000/svg" viewBox="0 0 1200 750" width="1200" height="750" role="img" aria-label="Astrolabe rings">
<defs><linearGradient id="bg" x1="0" y1="0" x2="1" y2="1"><stop offset="0" stop-color="#e8eae7"/><stop offset="1" stop-color="#d3d7d1"/></linearGradient></defs>
<rect width="1200" height="750" fill="url(#bg)"/><circle cx="845" cy="315" r="2.2" fill="#3b4643" opacity=".05"/><circle cx="653" cy="678" r="2.2" fill="#3b4643" opacity=".05"/><circle cx="665" cy="504" r="2.2" fill="#3b4643" opacity=".05"/><circle cx="1026" cy="162" r="2.2" fill="#3b4643" opacity=".05"/><circle cx="493" cy="131" r="2.2" fill="#3b4643" opacity=".05"/><circle cx="403" cy="108" r="2.2" fill="#3b4643" opacity=".05"/><circle cx="360" cy="88" r="2.2" fill="#3b4643" opacity=".05"/><circle cx="224" cy="319" r="2.2" fill="#3b4643" opacity=".05"/><circle cx="1112" cy="188" r="2.2" fill="#3b4643" opacity=".05"/><circle cx="337" cy="557" r="2.2" fill="#3b4643" opacity=".05"/><circle cx="1085" cy="168" r="2.2" fill="#3b4643" opacity=".05"/><circle cx="748" cy="63" r="2.2" fill="#3b4643" opacity=".05"/><circle cx="748" cy="503" r="2.2" fill="#3b4643" opacity=".05"/><circle cx="829" cy="673" r="2.2" fill="#3b4643" opacity=".05"/><circle cx="458" cy="74" r="2.2" fill="#3b4643" opacity=".05"/><circle cx="1005" cy="418" r="2.2" fill="#3b4643" opacity=".05"/><circle cx="988" cy="513" r="2.2" fill="#3b4643" opacity=".05"/><circle cx="105" cy="426" r="2.2" fill="#3b4643" opacity=".05"/><circle cx="213" cy="149" r="2.2" fill="#3b4643" opacity=".05"/><circle cx="878" cy="514" r="2.2" fill="#3b4643" opacity=".05"/><circle cx="491" cy="1" r="2.2" fill="#3b4643" opacity=".05"/><circle cx="395" cy="118" r="2.2" fill="#3b4643" opacity=".05"/><circle cx="491" cy="667" r="2.2" fill="#3b4643" opacity=".05"/><circle cx="851" cy="317" r="2.2" fill="#3b4643" opacity=".05"/><circle cx="407" cy="678" r="2.2" fill="#3b4643" opacity=".05"/><circle cx="101" cy="527" r="2.2" fill="#3b4643" opacity=".05"/><circle cx="43" cy="585" r="2.2" fill="#3b4643" opacity=".05"/><circle cx="776" cy="415" r="2.2" fill="#3b4643" opacity=".05"/><circle cx="881" cy="114" r="2.2" fill="#3b4643" opacity=".05"/><circle cx="495" cy="357" r="2.2" fill="#3b4643" opacity=".05"/><circle cx="42" cy="460" r="2.2" fill="#3b4643" opacity=".05"/><circle cx="1079" cy="51" r="2.2" fill="#3b4643" opacity=".05"/><circle cx="114" cy="512" r="2.2" fill="#3b4643" opacity=".05"/><circle cx="1057" cy="75" r="2.2" fill="#3b4643" opacity=".05"/><circle cx="781" cy="107" r="2.2" fill="#3b4643" opacity=".05"/><circle cx="743" cy="642" r="2.2" fill="#3b4643" opacity=".05"/><circle cx="896" cy="491" r="2.2" fill="#3b4643" opacity=".05"/><circle cx="735" cy="340" r="2.2" fill="#3b4643" opacity=".05"/><circle cx="1165" cy="161" r="2.2" fill="#3b4643" opacity=".05"/><circle cx="1122" cy="702" r="2.2" fill="#3b4643" opacity=".05"/><circle cx="258" cy="648" r="2.2" fill="#3b4643" opacity=".05"/><circle cx="1010" cy="200" r="2.2" fill="#3b4643" opacity=".05"/><circle cx="902" cy="393" r="2.2" fill="#3b4643" opacity=".05"/><circle cx="284" cy="414" r="2.2" fill="#3b4643" opacity=".05"/><circle cx="149" cy="383" r="2.2" fill="#3b4643" opacity=".05"/><circle cx="252" cy="321" r="2.2" fill="#3b4643" opacity=".05"/><circle cx="596" cy="465" r="2.2" fill="#3b4643" opacity=".05"/><circle cx="1181" cy="311" r="2.2" fill="#3b4643" opacity=".05"/><circle cx="296" cy="8" r="2.2" fill="#3b4643" opacity=".05"/><circle cx="63" cy="620" r="2.2" fill="#3b4643" opacity=".05"/><circle cx="459" cy="295" r="2.2" fill="#3b4643" opacity=".05"/><circle cx="1161" cy="700" r="2.2" fill="#3b4643" opacity=".05"/><circle cx="324" cy="717" r="2.2" fill="#3b4643" opacity=".05"/><circle cx="94" cy="367" r="2.2" fill="#3b4643" opacity=".05"/><circle cx="1191" cy="582" r="2.2" fill="#3b4643" opacity=".05"/><circle cx="741" cy="47" r="2.2" fill="#3b4643" opacity=".05"/><circle cx="202" cy="368" r="2.2" fill="#3b4643" opacity=".05"/><circle cx="1024" cy="87" r="2.2" fill="#3b4643" opacity=".05"/><circle cx="1071" cy="3" r="2.2" fill="#3b4643" opacity=".05"/><circle cx="323" cy="623" r="2.2" fill="#3b4643" opacity=".05"/><circle cx="281" cy="45" r="2.2" fill="#3b4643" opacity=".05"/><circle cx="274" cy="571" r="2.2" fill="#3b4643" opacity=".05"/><circle cx="99" cy="175" r="2.2" fill="#3b4643" opacity=".05"/><circle cx="207" cy="480" r="2.2" fill="#3b4643" opacity=".05"/><circle cx="977" cy="677" r="2.2" fill="#3b4643" opacity=".05"/><circle cx="661" cy="210" r="2.2" fill="#3b4643" opacity=".05"/><circle cx="470" cy="8" r="2.2" fill="#3b4643" opacity=".05"/><circle cx="93" cy="346" r="2.2" fill="#3b4643" opacity=".05"/><circle cx="710" cy="33" r="2.2" fill="#3b4643" opacity=".05"/><circle cx="288" cy="672" r="2.2" fill="#3b4643" opacity=".05"/><circle cx="1178" cy="602" r="2.2" fill="#3b4643" opacity=".05"/><circle cx="294" cy="692" r="2.2" fill="#3b4643" opacity=".05"/><circle cx="890" cy="109" r="2.2" fill="#3b4643" opacity=".05"/><circle cx="1183" cy="34" r="2.2" fill="#3b4643" opacity=".05"/><circle cx="913" cy="529" r="2.2" fill="#3b4643" opacity=".05"/><circle cx="1171" cy="478" r="2.2" fill="#3b4643" opacity=".05"/><circle cx="732" cy="513" r="2.2" fill="#3b4643" opacity=".05"/><circle cx="418" cy="383" r="2.2" fill="#3b4643" opacity=".05"/><circle cx="320" cy="500" r="2.2" fill="#3b4643" opacity=".05"/><circle cx="190" cy="124" r="2.2" fill="#3b4643" opacity=".05"/><circle cx="735" cy="632" r="2.2" fill="#3b4643" opacity=".05"/><circle cx="567" cy="648" r="2.2" fill="#3b4643" opacity=".05"/><circle cx="942" cy="658" r="2.2" fill="#3b4643" opacity=".05"/><circle cx="306" cy="295" r="2.2" fill="#3b4643" opacity=".05"/><circle cx="590" cy="121" r="2.2" fill="#3b4643" opacity=".05"/><circle cx="464" cy="701" r="2.2" fill="#3b4643" opacity=".05"/><circle cx="1116" cy="148" r="2.2" fill="#3b4643" opacity=".05"/><circle cx="204" cy="553" r="2.2" fill="#3b4643" opacity=".05"/><circle cx="1158" cy="209" r="2.2" fill="#3b4643" opacity=".05"/><circle cx="5" cy="193" r="2.2" fill="#3b4643" opacity=".05"/><circle cx="320" cy="553" r="2.2" fill="#3b4643" opacity=".05"/><circle cx="1037" cy="467" r="2.2" fill="#3b4643" opacity=".05"/><circle cx="803" cy="744" r="2.2" fill="#3b4643" opacity=".05"/><circle cx="428" cy="425" r="2.2" fill="#3b4643" opacity=".05"/><circle cx="583" cy="644" r="2.2" fill="#3b4643" opacity=".05"/><circle cx="1108" cy="383" r="2.2" fill="#3b4643" opacity=".05"/><circle cx="911" cy="417" r="2.2" fill="#3b4643" opacity=".05"/><circle cx="233" cy="574" r="2.2" fill="#3b4643" opacity=".05"/><circle cx="405" cy="361" r="2.2" fill="#3b4643" opacity=".05"/><circle cx="1184" cy="677" r="2.2" fill="#3b4643" opacity=".05"/><circle cx="1151" cy="528" r="2.2" fill="#3b4643" opacity=".05"/><circle cx="1092" cy="381" r="2.2" fill="#3b4643" opacity=".05"/><circle cx="729" cy="395" r="2.2" fill="#3b4643" opacity=".05"/><circle cx="14" cy="522" r="2.2" fill="#3b4643" opacity=".05"/><circle cx="863" cy="354" r="2.2" fill="#3b4643" opacity=".05"/><circle cx="904" cy="427" r="2.2" fill="#3b4643" opacity=".05"/><circle cx="433" cy="593" r="2.2" fill="#3b4643" opacity=".05"/><circle cx="495" cy="429" r="2.2" fill="#3b4643" opacity=".05"/><circle cx="248" cy="306" r="2.2" fill="#3b4643" opacity=".05"/><circle cx="879" cy="406" r="2.2" fill="#3b4643" opacity=".05"/><circle cx="324" cy="564" r="2.2" fill="#3b4643" opacity=".05"/><circle cx="16" cy="271" r="2.2" fill="#3b4643" opacity=".05"/><circle cx="283" cy="319" r="2.2" fill="#3b4643" opacity=".05"/><circle cx="346" cy="714" r="2.2" fill="#3b4643" opacity=".05"/><circle cx="1034" cy="603" r="2.2" fill="#3b4643" opacity=".05"/><circle cx="421" cy="52" r="2.2" fill="#3b4643" opacity=".05"/><circle cx="447" cy="507" r="2.2" fill="#3b4643" opacity=".05"/><circle cx="381" cy="217" r="2.2" fill="#3b4643" opacity=".05"/><circle cx="333" cy="47" r="2.2" fill="#3b4643" opacity=".05"/><circle cx="30" cy="243" r="2.2" fill="#3b4643" opacity=".05"/><g transform="translate(600,375)"><circle r="250" fill="none" stroke="#3b4643" stroke-opacity="0.45" stroke-width="2"/><circle r="196" fill="none" stroke="#3b4643" stroke-opacity="0.3" stroke-width="2"/><circle r="140" fill="none" stroke="#3b4643" stroke-opacity="0.22" stroke-width="2"/><circle r="84" fill="none" stroke="#3b4643" stroke-opacity="0.45" stroke-width="2"/><circle r="26" fill="#55443a" opacity=".85"/><line x1="235" y1="0" x2="250" y2="0" stroke="#3b4643" stroke-opacity=".4" stroke-width="3"/><line x1="204" y1="117" x2="217" y2="125" stroke="#3b4643" stroke-opacity=".4" stroke-width="3"/><line x1="118" y1="204" x2="125" y2="217" stroke="#3b4643" stroke-opacity=".4" stroke-width="3"/><line x1="0" y1="235" x2="0" y2="250" stroke="#3b4643" stroke-opacity=".4" stroke-width="3"/><line x1="-117" y1="204" x2="-125" y2="217" stroke="#3b4643" stroke-opacity=".4" stroke-width="3"/><line x1="-204" y1="117" x2="-217" y2="125" stroke="#3b4643" stroke-opacity=".4" stroke-width="3"/><line x1="-235" y1="0" x2="-250" y2="0" stroke="#3b4643" stroke-opacity=".4" stroke-width="3"/><line x1="-204" y1="-118" x2="-217" y2="-125" stroke="#3b4643" stroke-opacity=".4" stroke-width="3"/><line x1="-118" y1="-204" x2="-125" y2="-217" stroke="#3b4643" stroke-opacity=".4" stroke-width="3"/><line x1="-0" y1="-235" x2="-0" y2="-250" stroke="#3b4643" stroke-opacity=".4" stroke-width="3"/><line x1="118" y1="-204" x2="125" y2="-217" stroke="#3b4643" stroke-opacity=".4" stroke-width="3"/><line x1="204" y1="-118" x2="217" y2="-125" stroke="#3b4643" stroke-opacity=".4" stroke-width="3"/><circle cx="161" cy="112" r="11" fill="#8a9992"/><circle cx="-127" cy="59" r="11" fill="#8a9992"/><circle cx="43" cy="-246" r="11" fill="#8a9992"/><line x1="-250" y1="0" x2="250" y2="0" stroke="#3b4643" stroke-opacity=".28" stroke-width="2"/></g>
<rect x="72" y="676" width="120" height="2" fill="#55443a" opacity=".7"/></svg>